<?xml version="1.0" encoding="UTF-8"?>
<svg version="1.1" xmlns="http://www.w3.org/2000/svg" width="1920" height="1920">
<path d="M0 0 C5.00245746 0.00774507 10.00488912 -0.00222191 15.0073427 -0.00973 C23.73874718 -0.02047258 32.47009583 -0.02029405 41.20150274 -0.01258852 C54.18615998 -0.00116104 67.17077081 -0.00708345 80.15542782 -0.01621344 C102.0153204 -0.03104194 123.87519212 -0.03167379 145.73508734 -0.02348329 C167.37977799 -0.01537755 189.02445829 -0.01222734 210.6691503 -0.01604463 C212.03289498 -0.01627707 213.39663966 -0.01650854 214.76038434 -0.01673904 C220.24177012 -0.01767058 225.72315589 -0.01862659 231.20454166 -0.01961833 C246.52374605 -0.02236829 261.84295048 -0.02408087 277.16215509 -0.02497675 C277.85954185 -0.02501768 278.55692861 -0.02505862 279.27544831 -0.0251008 C301.470975 -0.0263272 323.66649855 -0.02295539 345.86202425 -0.01642801 C346.5810829 -0.01621726 347.30014155 -0.01600652 348.04098986 -0.01578938 C359.71537722 -0.01235523 371.38976451 -0.00869652 383.0641518 -0.00501886 C429.35822946 0.00954906 475.65228108 0.00887137 521.94635862 -0.00571062 C533.61628588 -0.00937468 545.28621313 -0.01300804 556.95614046 -0.01642801 C557.67486057 -0.01663936 558.39358068 -0.0168507 559.13408019 -0.01706845 C581.30900694 -0.02354426 603.48393153 -0.02627846 625.6588592 -0.02497675 C626.70413469 -0.02491562 626.70413469 -0.02491562 627.77052686 -0.02485325 C643.07257517 -0.02391551 658.37462326 -0.022014 673.67667135 -0.01924524 C679.15261273 -0.01825797 684.62855412 -0.0173187 690.10449551 -0.01639311 C691.46656055 -0.01616094 692.82862559 -0.01592475 694.19069062 -0.01568452 C715.82439907 -0.01187932 737.45809614 -0.01613021 759.09180309 -0.02423495 C781.50129182 -0.03253853 803.91075441 -0.02940169 826.32023943 -0.01364106 C839.21540122 -0.00486954 852.11050088 -0.00420286 865.00566098 -0.01557958 C873.64213359 -0.02235488 882.27855688 -0.01803407 890.91502224 -0.00506528 C895.82014725 0.00200336 900.72514976 0.00465523 905.63027049 -0.00628323 C974.45893307 -0.14819228 1041.23174778 11.68862271 1104.84211058 38.38540266 C1105.87142698 38.81208235 1106.90074339 39.23876204 1107.9612512 39.67837141 C1120.40120672 44.85173743 1132.47824812 50.48516805 1144.28254026 56.98110579 C1147.05632294 58.50292932 1149.84378491 59.99803358 1152.63117308 61.49477766 C1182.02360489 77.44452185 1209.34546266 96.77536388 1234.84211058 118.38540266 C1235.84032835 119.22699934 1235.84032835 119.22699934 1236.85871214 120.08559798 C1244.42287871 126.47748566 1251.69070328 133.01820064 1258.57257933 140.14321516 C1260.75040485 142.4055583 1260.75040485 142.4055583 1263.14289183 144.06509016 C1263.98400511 144.71864485 1263.98400511 144.71864485 1264.84211058 145.38540266 C1264.84211058 146.04540266 1264.84211058 146.70540266 1264.84211058 147.38540266 C1265.50211058 147.38540266 1266.16211058 147.38540266 1266.84211058 147.38540266 C1268.21711058 148.78384016 1268.21711058 148.78384016 1269.84211058 150.76040266 C1272.6563503 154.08260682 1275.5974149 157.16081575 1278.71711058 160.19790266 C1282.97463049 164.41047138 1286.78415216 168.82401236 1290.51789183 173.50259016 C1292.50663551 175.96930081 1294.54781919 178.3754683 1296.62433714 180.76821516 C1318.60172026 206.21402893 1336.5925845 234.83019828 1352.67951292 264.26870344 C1353.71701499 266.15764569 1354.77039584 268.03637604 1355.83039183 269.91274641 C1387.15324692 326.52734786 1404.0548301 392.18251144 1409.84211058 456.38540266 C1409.93027133 457.32112446 1410.01843207 458.25684626 1410.10926436 459.22092327 C1410.88989065 468.23382959 1410.98447549 477.1951105 1410.97353834 486.23189638 C1410.9751912 487.91209468 1410.97727893 489.59229258 1410.97975844 491.27248986 C1410.98529349 495.87723906 1410.98465851 500.48196956 1410.98298085 505.08672102 C1410.98224697 510.10141629 1410.98727923 515.11610641 1410.99155587 520.13079946 C1410.9991211 530.07157124 1411.00132818 540.01233765 1411.00188493 549.95311202 C1411.00280005 561.86303879 1411.00947206 573.77296063 1411.01623175 585.68288527 C1411.03189925 613.78591308 1411.03797894 641.88894089 1411.04263878 669.99197209 C1411.04502453 684.30013049 1411.04872855 698.60828842 1411.05267588 712.91644645 C1411.06534011 758.84854654 1411.07612287 804.78064661 1411.07951634 850.71274841 C1411.07967857 852.90711045 1411.07984413 855.10147249 1411.08001072 857.29583453 C1411.08034451 861.69642345 1411.08067499 866.09701238 1411.08100528 870.49760131 C1411.08139217 875.64926431 1411.08178178 880.8009273 1411.08217634 885.95259029 C1411.08228876 887.42702015 1411.08240018 888.90145002 1411.0825106 890.37587988 C1411.08605751 937.69619302 1411.10112572 985.01649095 1411.12444834 1032.33679828 C1411.14120501 1066.34893125 1411.1566714 1100.36106134 1411.1611833 1134.37319849 C1411.16132353 1135.42389025 1411.16132353 1135.42389025 1411.16146659 1136.4958081 C1411.1634863 1151.87787448 1411.1646418 1167.25994081 1411.16499518 1182.64200731 C1411.16513134 1188.14713093 1411.16534032 1193.65225456 1411.16558843 1199.15737818 C1411.16564999 1200.52680024 1411.16570831 1201.8962223 1411.16576338 1203.26564437 C1411.16668078 1225.02926603 1411.17661991 1246.79287176 1411.19122087 1268.55648819 C1411.20629304 1291.11291893 1411.21039725 1313.66933022 1411.20212791 1336.22576513 C1411.19768728 1349.20990439 1411.20146918 1362.19397841 1411.21736641 1375.17810904 C1411.22717394 1383.87335367 1411.22588355 1392.568553 1411.21593018 1401.2637973 C1411.21057941 1406.20368558 1411.20969252 1411.14344934 1411.2224389 1416.0833269 C1411.3934286 1486.91681445 1398.64415686 1555.91076219 1369.93146605 1620.90981673 C1368.88904392 1623.27874554 1367.86510024 1625.65479527 1366.84601683 1628.03384016 C1348.61428856 1670.2995511 1322.52804117 1709.34668801 1292.84211058 1744.38540266 C1292.28636351 1745.0455638 1291.73061644 1745.70572493 1291.15802855 1746.38589094 C1284.58718306 1754.17563116 1277.82070718 1761.61080018 1270.49836058 1768.70180891 C1268.61139005 1770.60820413 1266.91886656 1772.45273667 1265.23273558 1774.51821516 C1263.27439364 1776.86694553 1261.43324067 1778.76196816 1259.09211058 1780.69790266 C1256.0812455 1783.25854493 1253.28470166 1785.92645388 1250.52961058 1788.76040266 C1246.4138452 1792.93293722 1242.02253237 1796.61413934 1237.45148558 1800.27602766 C1235.25326995 1802.05302832 1233.13246481 1803.87322579 1231.02961058 1805.76040266 C1205.69364522 1828.07652568 1176.61260291 1846.0452725 1147.06232542 1862.17104719 C1145.63568732 1862.95135266 1144.21132402 1863.73583964 1142.78986448 1864.52553938 C1085.65012588 1896.2698386 1019.71764436 1913.53748985 954.84211058 1919.38540266 C953.90638878 1919.47356341 952.97066698 1919.56172416 952.00658997 1919.65255645 C942.99368365 1920.43318273 934.03240274 1920.52776757 924.99561686 1920.51683043 C923.31541856 1920.51848328 921.63522066 1920.52057102 919.95502338 1920.52305053 C915.35027418 1920.52858557 910.74554368 1920.5279506 906.14079222 1920.52627294 C901.12609695 1920.52553906 896.11140683 1920.53057132 891.09671378 1920.53484796 C881.155942 1920.54241318 871.21517559 1920.54462027 861.27440122 1920.54517701 C849.36447445 1920.54609213 837.45455261 1920.55276415 825.54462797 1920.55952384 C797.44160016 1920.57519134 769.33857235 1920.58127102 741.23554115 1920.58593087 C726.92738275 1920.58831662 712.61922482 1920.59202064 698.31106679 1920.59596796 C652.3789667 1920.60863219 606.44686663 1920.61941495 560.51476483 1920.62280842 C558.32040279 1920.62297066 556.12604075 1920.62313622 553.93167871 1920.62330281 C549.53108978 1920.62363659 545.13050086 1920.62396708 540.72991193 1920.62429736 C535.57824893 1920.62468425 530.42658594 1920.62507386 525.27492295 1920.62546843 C523.80049309 1920.62558085 522.32606322 1920.62569227 520.85163336 1920.62580268 C473.53132022 1920.6293496 426.21102229 1920.64441781 378.89071496 1920.66774043 C344.87858199 1920.6844971 310.8664519 1920.69996349 276.85431475 1920.70447539 C276.15385358 1920.70456887 275.4533924 1920.70466236 274.73170514 1920.70475868 C259.34963876 1920.70677838 243.96757243 1920.70793388 228.58550593 1920.70828726 C223.08038231 1920.70842342 217.57525868 1920.70863241 212.07013506 1920.70888051 C210.700713 1920.70894208 209.33129094 1920.7090004 207.96186887 1920.70905546 C186.19824721 1920.70997287 164.43464148 1920.71991199 142.67102505 1920.73451295 C120.11459431 1920.74958512 97.55818302 1920.75368934 75.00174811 1920.74541999 C62.01760885 1920.74097937 49.03353483 1920.74476127 36.0494042 1920.7606585 C27.35415957 1920.77046603 18.65896024 1920.76917564 9.96371594 1920.75922227 C5.02382766 1920.75387149 0.0840639 1920.75298461 -4.85581366 1920.76573099 C-84.85615604 1920.95884917 -163.7318622 1904.59078743 -235.09685427 1867.45278548 C-237.38702879 1866.26673442 -239.6882921 1865.10374886 -241.98992067 1863.94009016 C-261.21233621 1854.14078369 -279.6372555 1842.9798106 -297.15788942 1830.38540266 C-297.89958376 1829.85479231 -298.64127809 1829.32418196 -299.40544802 1828.77749251 C-311.03940911 1820.42484328 -322.23368768 1811.64436189 -333.15788942 1802.38540266 C-334.1561072 1801.54380598 -334.1561072 1801.54380598 -335.17449099 1800.68520735 C-342.73865755 1794.29331966 -350.00648213 1787.75260468 -356.88835817 1780.62759016 C-359.0661837 1778.36524702 -359.0661837 1778.36524702 -361.45867067 1776.70571516 C-362.01941286 1776.27001204 -362.58015505 1775.83430891 -363.15788942 1775.38540266 C-363.15788942 1774.72540266 -363.15788942 1774.06540266 -363.15788942 1773.38540266 C-363.81788942 1773.38540266 -364.47788942 1773.38540266 -365.15788942 1773.38540266 C-366.53288942 1771.98696516 -366.53288942 1771.98696516 -368.15788942 1770.01040266 C-370.97212915 1766.68819851 -373.91319374 1763.60998958 -377.03288942 1760.57290266 C-381.29040933 1756.36033394 -385.099931 1751.94679297 -388.83367067 1747.26821516 C-390.82241435 1744.80150452 -392.86359803 1742.39533703 -394.94011599 1740.00259016 C-416.9174991 1714.5567764 -434.90836334 1685.94060705 -450.99529177 1656.50210188 C-452.03279384 1654.61315964 -453.08617468 1652.73442929 -454.14617067 1650.85805891 C-485.47471302 1594.23317803 -502.36984584 1528.59675965 -508.15788942 1464.38540266 C-508.24605017 1463.44968086 -508.33421092 1462.51395906 -508.42504321 1461.54988206 C-509.20566949 1452.53697574 -509.30025433 1443.57569483 -509.28931719 1434.53890894 C-509.29097004 1432.85871065 -509.29305778 1431.17851274 -509.29553729 1429.49831547 C-509.30107233 1424.89356626 -509.30043736 1420.28883577 -509.2987597 1415.68408431 C-509.29802582 1410.66938903 -509.30305808 1405.65469892 -509.30733472 1400.64000587 C-509.31489994 1390.69923408 -509.31710703 1380.75846767 -509.31766377 1370.81769331 C-509.31857889 1358.90776653 -509.32525091 1346.9978447 -509.3320106 1335.08792006 C-509.3476781 1306.98489224 -509.35375778 1278.88186443 -509.35841763 1250.77883323 C-509.36080338 1236.47067484 -509.3645074 1222.16251691 -509.36845472 1207.85435887 C-509.38111895 1161.92225879 -509.39190171 1115.99015872 -509.39529518 1070.05805691 C-509.39545742 1067.86369487 -509.39562298 1065.66933284 -509.39578957 1063.4749708 C-509.39612335 1059.07438187 -509.39645384 1054.67379294 -509.39678412 1050.27320401 C-509.39717101 1045.12154102 -509.39756062 1039.96987803 -509.39795519 1034.81821504 C-509.39806761 1033.34378517 -509.39817903 1031.86935531 -509.39828944 1030.39492544 C-509.40183636 983.07461231 -509.41690457 935.75431438 -509.44022719 888.43400705 C-509.45698386 854.42187407 -509.47245025 820.40974398 -509.47696215 786.39760683 C-509.47705563 785.69714566 -509.47714912 784.99668449 -509.47724544 784.27499722 C-509.47926514 768.89293085 -509.48042064 753.51086452 -509.48077402 738.12879802 C-509.48091018 732.62367439 -509.48111917 727.11855077 -509.48136727 721.61342715 C-509.48142884 720.24400508 -509.48148716 718.87458302 -509.48154222 717.50516096 C-509.48245963 695.74153929 -509.49239875 673.97793357 -509.50699971 652.21431714 C-509.52207188 629.65788639 -509.5261761 607.1014751 -509.51790675 584.5450402 C-509.51346613 571.56090094 -509.51724803 558.57682691 -509.53314526 545.59269628 C-509.54295279 536.89745165 -509.5416624 528.20225232 -509.53170903 519.50700803 C-509.52635825 514.56711975 -509.52547137 509.62735599 -509.53821775 504.68747843 C-509.73133593 424.68713604 -493.36327419 345.81142989 -456.22527224 274.44643782 C-455.03922118 272.1562633 -453.87623562 269.85499998 -452.71257692 267.55337141 C-442.91327045 248.33095587 -431.75229736 229.90603658 -419.15788942 212.38540266 C-418.3619739 211.27286116 -418.3619739 211.27286116 -417.54997927 210.13784407 C-409.19715237 198.50363551 -400.41486102 187.31153433 -391.15788942 176.38540266 C-390.60214235 175.72524153 -390.04639528 175.0650804 -389.47380739 174.38491438 C-383.21972708 166.97069942 -376.81936717 159.81723379 -369.85076052 153.06386946 C-367.15606567 150.4931106 -367.15606567 150.4931106 -365.15788942 147.38540266 C-364.49788942 147.38540266 -363.83788942 147.38540266 -363.15788942 147.38540266 C-362.77310427 146.49401594 -362.77310427 146.49401594 -362.38054567 145.58462141 C-361.04079377 143.17478013 -359.72056512 141.93668278 -357.59538942 140.19790266 C-354.51393797 137.59862077 -351.65272156 134.90357049 -348.84538942 132.01040266 C-344.81743094 127.93424639 -340.54801315 124.32250165 -336.07585817 120.74477766 C-333.59853155 118.74169162 -331.17885808 116.68861695 -328.77287966 114.60097883 C-303.35536545 92.65294132 -274.77346134 74.6396315 -245.35613161 58.59096907 C-243.32617761 57.47769576 -241.30778584 56.34598476 -239.29070192 55.20962141 C-166.63695093 14.86387744 -82.19403885 -0.18342958 0 0 Z " fill="#FEFEFE" transform="translate(509.1578894229606,-0.38540266267955303)"/>
<path d="M0 0 C1.15616821 0.00049347 2.31233643 0.00098694 3.50354004 0.00149536 C56.07006671 0.07006671 56.07006671 0.07006671 60.3125 4.3125 C61.82012832 4.63272932 63.33841643 4.90299457 64.859375 5.15234375 C97.1174199 10.78364323 128.22707251 22.7623963 155.3125 41.3125 C156.75882813 42.29089844 156.75882813 42.29089844 158.234375 43.2890625 C175.38621753 55.33500971 190.66346495 70.40303766 205.3125 85.3125 C206.240625 86.22 207.16875 87.1275 208.125 88.0625 C210.3125 90.3125 210.3125 90.3125 212.1875 92.75 C214.44407284 95.47116136 216.87467204 97.58118968 219.578125 99.83984375 C222.77424071 102.55366272 225.63155181 105.42726735 228.1875 108.75 C230.44407284 111.47116136 232.87467204 113.58118968 235.578125 115.83984375 C238.77424071 118.55366272 241.63155181 121.42726735 244.1875 124.75 C245.94476429 126.869054 247.52519503 128.39464847 249.625 130.125 C252.93457075 132.87946228 255.65309692 135.90546886 258.43359375 139.18359375 C260.44527123 141.46293726 262.57087177 143.56817632 264.75 145.6875 C300.99288599 181.74734111 319.28671028 237.69160846 319.515625 288.0859375 C319.52132507 289.08976471 319.52702515 290.09359192 319.53289795 291.12783813 C319.54228875 293.24390632 319.54885817 295.35998874 319.55273438 297.47607422 C319.56236918 300.64448015 319.59342109 303.81221638 319.625 306.98046875 C319.69273751 320.05125491 318.65208763 332.46054187 316.3125 345.3125 C315.99336616 347.24867758 315.67432937 349.18487116 315.35546875 351.12109375 C312.03098549 369.57552476 307.04454434 387.21650389 299.3125 404.3125 C298.94640625 405.13218262 298.5803125 405.95186523 298.203125 406.79638672 C290.2660886 424.44637141 280.56249451 440.59028544 269.3125 456.3125 C270.24642578 456.73789062 270.24642578 456.73789062 271.19921875 457.171875 C274.01555077 458.69196548 275.320556 460.80834183 277.3125 463.3125 C279.02989423 464.87376748 280.80129859 466.35537644 282.58203125 467.84375 C285.93891562 470.69293402 288.86751192 473.75927158 291.625 477.1875 C293.6525976 479.68202071 295.86587379 481.72850695 298.3125 483.8125 C301.75805503 486.74736301 304.47970935 489.79065217 307.3125 493.3125 C309.87021666 496.00138162 312.46038299 498.43573583 315.3125 500.8125 C318.1622877 503.18732308 320.71187071 505.66973975 323.3125 508.3125 C324.19808594 509.21226562 325.08367188 510.11203125 325.99609375 511.0390625 C339.28677422 525.02726804 345.12013087 539.42831385 344.8125 558.875 C344.80596405 559.5816983 344.7994281 560.28839661 344.79269409 561.01651001 C344.66794203 572.55209082 343.62558132 583.23605216 340.3125 594.3125 C339.99571289 595.39595703 339.67892578 596.47941406 339.35253906 597.59570312 C336.81180893 606.21412104 334.10021386 614.77115956 331.3125 623.3125 C330.99345703 624.30088867 330.67441406 625.28927734 330.34570312 626.30761719 C326.83586482 637.1097782 322.74324908 647.25237517 317.38818359 657.27001953 C316.27095667 659.39138141 315.2048219 661.53325819 314.14453125 663.68359375 C302.83859417 686.31478603 288.08518874 707.20754221 270.79296875 725.6484375 C268.76173951 727.83000969 266.80448434 730.0419688 264.875 732.3125 C257.62351908 740.63699242 249.74919833 748.25151594 241.078125 755.08203125 C238.83554755 756.89066363 236.68332228 758.74362095 234.53125 760.65625 C202.60127957 788.72420735 162.12139815 807.49699152 120.85986328 816.73974609 C118.74356008 817.21557965 116.63437472 817.72293931 114.52734375 818.23828125 C90.80920336 823.64768169 65.75259655 823.89665745 41.5625 823.8125 C40.15184538 823.81033079 38.74119067 823.80821552 37.33053589 823.80615234 C16.27581571 823.75488067 -4.0722927 822.9156397 -24.6875 818.3125 C-25.74720001 818.08055939 -25.74720001 818.08055939 -26.82830811 817.84393311 C-87.64672667 804.53091971 -135.5719671 776.77642794 -179.42277956 732.87880301 C-181.44099352 730.85950459 -183.46220957 728.84322347 -185.48334157 726.82684642 C-190.25944575 722.06176049 -195.03029984 717.29146389 -199.79785156 712.51782227 C-204.67827792 707.6313569 -209.56781489 702.75414623 -214.46188986 697.88135403 C-218.70046614 693.66051775 -222.93307884 689.43376325 -227.16117609 685.20243007 C-229.67032097 682.69149249 -232.18151612 680.1827081 -234.69859695 677.67972374 C-245.07238103 667.35910279 -255.04222512 657.14235406 -263.6875 645.3125 C-265.08526584 643.46520405 -266.49017287 641.62352414 -267.89651012 639.78274918 C-306.60418127 588.89967353 -330.13286665 519.974148 -334.47485352 456.15893555 C-334.71487132 452.946114 -335.15593703 449.80191929 -335.6875 446.625 C-338.36611496 428.37200201 -337.90574834 409.78521695 -337.92773438 391.37792969 C-337.93208672 388.27591992 -337.94587819 385.17419335 -337.96875 382.07226562 C-338.26543546 340.9340064 -333.28043958 301.37380331 -323.6875 261.3125 C-323.42718994 260.21542725 -323.42718994 260.21542725 -323.16162109 259.09619141 C-310.91067988 208.21662245 -288.64905798 159.31557866 -254.6875 119.3125 C-253.86894531 118.30960938 -253.05039062 117.30671875 -252.20703125 116.2734375 C-245.90436117 108.62882771 -239.1091013 101.52480694 -232.125 94.5 C-230.83190918 93.19313232 -230.83190918 93.19313232 -229.51269531 91.85986328 C-223.54605304 85.92146146 -217.27210978 80.55082119 -210.6875 75.3125 C-209.42143102 74.27556574 -208.15687605 73.2367773 -206.89453125 72.1953125 C-194.19534033 61.83534989 -180.80829406 52.63843989 -166.6875 44.3125 C-166.10097656 43.96509766 -165.51445313 43.61769531 -164.91015625 43.25976562 C-149.43377262 34.14734947 -133.38900045 26.21839547 -116.33203125 20.54296875 C-113.38311613 19.54735432 -110.54850477 18.46652808 -107.6875 17.25 C-74.11881674 3.64259405 -35.86561245 -0.10517119 0 0 Z " fill="#FEFEFE" transform="translate(956.6875,510.6875)"/>
<path d="M0 0 C1.15616821 0.00049347 2.31233643 0.00098694 3.50354004 0.00149536 C56.07006671 0.07006671 56.07006671 0.07006671 60.3125 4.3125 C61.82012832 4.63272932 63.33841643 4.90299457 64.859375 5.15234375 C97.1174199 10.78364323 128.22707251 22.7623963 155.3125 41.3125 C156.75882813 42.29089844 156.75882813 42.29089844 158.234375 43.2890625 C175.38621753 55.33500971 190.66346495 70.40303766 205.3125 85.3125 C206.240625 86.22 207.16875 87.1275 208.125 88.0625 C210.3125 90.3125 210.3125 90.3125 212.1875 92.75 C214.44407284 95.47116136 216.87467204 97.58118968 219.578125 99.83984375 C222.77424071 102.55366272 225.63155181 105.42726735 228.1875 108.75 C230.44407284 111.47116136 232.87467204 113.58118968 235.578125 115.83984375 C238.77424071 118.55366272 241.63155181 121.42726735 244.1875 124.75 C245.94476429 126.869054 247.52519503 128.39464847 249.625 130.125 C252.93457075 132.87946228 255.65309692 135.90546886 258.43359375 139.18359375 C260.44527123 141.46293726 262.57087177 143.56817632 264.75 145.6875 C300.99288599 181.74734111 319.28671028 237.69160846 319.515625 288.0859375 C319.52132507 289.08976471 319.52702515 290.09359192 319.53289795 291.12783813 C319.54228875 293.24390632 319.54885817 295.35998874 319.55273438 297.47607422 C319.56236918 300.64448015 319.59342109 303.81221638 319.625 306.98046875 C319.69273751 320.05125491 318.65208763 332.46054187 316.3125 345.3125 C315.99336616 347.24867758 315.67432937 349.18487116 315.35546875 351.12109375 C312.03098549 369.57552476 307.04454434 387.21650389 299.3125 404.3125 C298.94640625 405.13218262 298.5803125 405.95186523 298.203125 406.79638672 C290.2660886 424.44637141 280.56249451 440.59028544 269.3125 456.3125 C270.24642578 456.73789062 270.24642578 456.73789062 271.19921875 457.171875 C274.01555077 458.69196548 275.320556 460.80834183 277.3125 463.3125 C279.02989423 464.87376748 280.80129859 466.35537644 282.58203125 467.84375 C285.93891562 470.69293402 288.86751192 473.75927158 291.625 477.1875 C293.6525976 479.68202071 295.86587379 481.72850695 298.3125 483.8125 C301.75805503 486.74736301 304.47970935 489.79065217 307.3125 493.3125 C309.87021666 496.00138162 312.46038299 498.43573583 315.3125 500.8125 C318.1622877 503.18732308 320.71187071 505.66973975 323.3125 508.3125 C324.19808594 509.21226562 325.08367188 510.11203125 325.99609375 511.0390625 C339.28677422 525.02726804 345.12013087 539.42831385 344.8125 558.875 C344.80596405 559.5816983 344.7994281 560.28839661 344.79269409 561.01651001 C344.66794203 572.55209082 343.62558132 583.23605216 340.3125 594.3125 C339.99571289 595.39595703 339.67892578 596.47941406 339.35253906 597.59570312 C336.81180893 606.21412104 334.10021386 614.77115956 331.3125 623.3125 C330.99345703 624.30088867 330.67441406 625.28927734 330.34570312 626.30761719 C326.83586482 637.1097782 322.74324908 647.25237517 317.38818359 657.27001953 C316.27095667 659.39138141 315.2048219 661.53325819 314.14453125 663.68359375 C302.83859417 686.31478603 288.08518874 707.20754221 270.79296875 725.6484375 C268.76173951 727.83000969 266.80448434 730.0419688 264.875 732.3125 C257.62351908 740.63699242 249.74919833 748.25151594 241.078125 755.08203125 C238.83554755 756.89066363 236.68332228 758.74362095 234.53125 760.65625 C202.60127957 788.72420735 162.12139815 807.49699152 120.85986328 816.73974609 C118.74356008 817.21557965 116.63437472 817.72293931 114.52734375 818.23828125 C90.80920336 823.64768169 65.75259655 823.89665745 41.5625 823.8125 C40.15184538 823.81033079 38.74119067 823.80821552 37.33053589 823.80615234 C16.27581571 823.75488067 -4.0722927 822.9156397 -24.6875 818.3125 C-25.74720001 818.08055939 -25.74720001 818.08055939 -26.82830811 817.84393311 C-87.64672667 804.53091971 -135.5719671 776.77642794 -179.42277956 732.87880301 C-181.44099352 730.85950459 -183.46220957 728.84322347 -185.48334157 726.82684642 C-190.25944575 722.06176049 -195.03029984 717.29146389 -199.79785156 712.51782227 C-204.67827792 707.6313569 -209.56781489 702.75414623 -214.46188986 697.88135403 C-218.70046614 693.66051775 -222.93307884 689.43376325 -227.16117609 685.20243007 C-229.67032097 682.69149249 -232.18151612 680.1827081 -234.69859695 677.67972374 C-245.07238103 667.35910279 -255.04222512 657.14235406 -263.6875 645.3125 C-265.08526584 643.46520405 -266.49017287 641.62352414 -267.89651012 639.78274918 C-306.60418127 588.89967353 -330.13286665 519.974148 -334.47485352 456.15893555 C-334.71487132 452.946114 -335.15593703 449.80191929 -335.6875 446.625 C-338.36611496 428.37200201 -337.90574834 409.78521695 -337.92773438 391.37792969 C-337.93208672 388.27591992 -337.94587819 385.17419335 -337.96875 382.07226562 C-338.26543546 340.9340064 -333.28043958 301.37380331 -323.6875 261.3125 C-323.42718994 260.21542725 -323.42718994 260.21542725 -323.16162109 259.09619141 C-310.91067988 208.21662245 -288.64905798 159.31557866 -254.6875 119.3125 C-253.86894531 118.30960938 -253.05039062 117.30671875 -252.20703125 116.2734375 C-245.90436117 108.62882771 -239.1091013 101.52480694 -232.125 94.5 C-230.83190918 93.19313232 -230.83190918 93.19313232 -229.51269531 91.85986328 C-223.54605304 85.92146146 -217.27210978 80.55082119 -210.6875 75.3125 C-209.42143102 74.27556574 -208.15687605 73.2367773 -206.89453125 72.1953125 C-194.19534033 61.83534989 -180.80829406 52.63843989 -166.6875 44.3125 C-166.10097656 43.96509766 -165.51445313 43.61769531 -164.91015625 43.25976562 C-149.43377262 34.14734947 -133.38900045 26.21839547 -116.33203125 20.54296875 C-113.38311613 19.54735432 -110.54850477 18.46652808 -107.6875 17.25 C-74.11881674 3.64259405 -35.86561245 -0.10517119 0 0 Z M-64.54516602 46.36474609 C-66.54667825 46.82319163 -68.55120548 47.26609093 -70.55664062 47.70703125 C-80.5244254 49.92172292 -90.18918485 52.55837267 -99.6875 56.3125 C-100.9252417 56.79759033 -100.9252417 56.79759033 -102.18798828 57.29248047 C-135.40700128 70.45495575 -166.09745119 87.99452291 -192.48046875 112.2890625 C-194.40880517 114.05698863 -196.37597978 115.75096046 -198.375 117.4375 C-208.72407339 126.48242187 -218.29948269 136.42990505 -226.6875 147.3125 C-227.48414063 148.31539062 -228.28078125 149.31828125 -229.1015625 150.3515625 C-248.38679184 174.7630077 -263.96791707 202.79540479 -273.15234375 232.55078125 C-274.16792807 235.82996484 -275.34341394 238.97405175 -276.66796875 242.140625 C-279.00825455 247.8780819 -280.55100079 253.74885999 -282.0625 259.75 C-282.5097644 261.50739502 -282.5097644 261.50739502 -282.96606445 263.30029297 C-297.48721915 320.97673293 -303.26590491 379.97440473 -296.6875 439.3125 C-296.55327637 440.59640625 -296.41905273 441.8803125 -296.28076172 443.203125 C-291.5786035 487.99156304 -281.6202598 532.68064605 -261.6875 573.3125 C-261.26742676 574.17182129 -260.84735352 575.03114258 -260.41455078 575.91650391 C-251.64751288 593.6618728 -241.11330107 609.91787621 -228.6875 625.3125 C-227.8728125 626.33214844 -227.058125 627.35179687 -226.21875 628.40234375 C-215.81404626 641.18980407 -204.04633838 653.60843816 -190.6875 663.3125 C-189.68203125 664.07304688 -188.6765625 664.83359375 -187.640625 665.6171875 C-178.15386185 672.69598695 -168.08829639 678.68041466 -157.6875 684.3125 C-156.97094238 684.7029248 -156.25438477 685.09334961 -155.51611328 685.49560547 C-130.61933315 698.80121136 -102.4788136 706.22735854 -74.6875 710.3125 C-73.43678711 710.50465088 -72.18607422 710.69680176 -70.89746094 710.89477539 C-57.03487715 712.83140042 -43.05146413 712.65276619 -29.08447266 712.62817383 C-26.23991093 712.62353887 -23.39577639 712.6304905 -20.55126953 712.64868164 C-4.38346223 712.75100728 11.40238426 712.52206428 27.3125 709.3125 C28.57126953 709.07217041 29.83003906 708.83184082 31.12695312 708.58422852 C34.47273606 707.91706899 37.79872301 707.19549133 41.125 706.4375 C42.2795166 706.17557861 43.4340332 705.91365723 44.62353516 705.64379883 C83.14955801 696.70830135 118.09544184 677.0392808 147.09375 650.34765625 C149.08949099 648.5170558 151.12480611 646.75413517 153.1875 645 C162.48189245 636.86975367 170.67326705 628.0023399 178.3125 618.3125 C178.94285156 617.56097656 179.57320312 616.80945312 180.22265625 616.03515625 C204.24991494 587.17284345 219.8089654 551.90893685 229.59619141 515.94433594 C230.02410151 514.37212362 230.45886738 512.80171505 230.90771484 511.23535156 C233.12385981 503.46081813 233.6247229 495.8525351 233.75 487.8125 C233.77247803 486.86745605 233.79495605 485.92241211 233.81811523 484.94873047 C233.79762336 479.07334098 233.15701541 475.81444184 229.3125 471.3125 C225.34900489 467.70932262 221.08618462 467.80099784 215.95703125 467.97265625 C209.82026799 468.76128018 206.07508001 473.17721999 202.26953125 477.6875 C199.42013957 481.50943854 196.97798449 485.55176795 194.49487305 489.61767578 C185.75313216 503.84268053 175.90545612 517.41162509 165.3125 530.3125 C164.86841797 530.85422852 164.42433594 531.39595703 163.96679688 531.95410156 C137.82231885 563.68484575 108.16789104 588.69406991 70.3125 605.3125 C69.51706787 605.6623999 68.72163574 606.0122998 67.90209961 606.37280273 C61.37802616 609.11823322 54.75732696 610.88728187 47.875 612.5 C46.29235352 612.88961914 46.29235352 612.88961914 44.67773438 613.28710938 C8.30490895 621.94943765 -29.81133519 616.31103052 -61.859375 597.4453125 C-90.13299966 579.41900683 -109.09989598 551.35992156 -120.6875 520.3125 C-121.37257225 518.72811472 -122.05984341 517.14467716 -122.75 515.5625 C-125.58985619 508.46285952 -127.30623343 500.9710267 -129.13232422 493.56054688 C-129.59730564 491.67771974 -130.07976702 489.799221 -130.56640625 487.921875 C-136.53110346 463.06376516 -136.59038216 436.73923993 -137.6875 411.3125 C-136.70475098 411.84794434 -135.72200195 412.38338867 -134.70947266 412.93505859 C-124.61428487 418.42010887 -124.61428487 418.42010887 -114.0625 422.9375 C-113.31637451 423.21835449 -112.57024902 423.49920898 -111.80151367 423.78857422 C-65.41944704 440.84059292 -12.09697916 443.09576499 36.3125 434.3125 C37.5897998 434.08224121 38.86709961 433.85198242 40.18310547 433.61474609 C53.81204211 431.11540508 67.41738365 428.49258947 80.3125 423.3125 C81.10527344 422.99410156 81.89804688 422.67570312 82.71484375 422.34765625 C107.03446162 412.48249179 127.84749539 400.02366119 147.3125 382.3125 C148.05757812 381.63960937 148.80265625 380.96671875 149.5703125 380.2734375 C182.55144115 348.89463089 202.1068013 302.04196837 206.91796875 257.4375 C207.3125 254.3125 207.3125 254.3125 208.3125 251.3125 C208.42211038 248.51236919 208.47657245 245.73804332 208.48046875 242.9375 C208.48379715 242.09896484 208.48712555 241.26042969 208.49055481 240.39648438 C208.49562437 238.61100817 208.49796313 236.82552246 208.49780273 235.04003906 C208.49994717 232.37808189 208.51798238 229.71656892 208.53710938 227.0546875 C208.5931367 210.72467252 207.30812526 194.81768825 203.625 178.875 C203.36227295 177.7288623 203.0995459 176.58272461 202.82885742 175.40185547 C195.66542999 145.15721077 181.86627492 119.63715386 160.3125 97.3125 C159.46300781 96.39984375 158.61351562 95.4871875 157.73828125 94.546875 C128.89173903 64.36364697 87.81039306 48.57024499 47.3125 42.3125 C46.21172119 42.12631104 45.11094238 41.94012207 43.97680664 41.74829102 C31.56159535 39.88596792 19.12063487 39.97522063 6.58862305 39.99682617 C2.78209422 39.99997346 -1.0236455 39.97650055 -4.83007812 39.95117188 C-25.17661434 39.89646644 -44.71462754 41.819989 -64.54516602 46.36474609 Z " fill="#03060B" transform="translate(956.6875,510.6875)"/>
<path d="M0 0 C1.76650033 2.6497505 2.67922615 4.63199088 3.70703125 7.59375 C19.39368546 51.69131174 43.78584482 90.94984964 76.89770508 124.04296875 C77.76048569 124.90910797 78.6232663 125.77524719 79.51219177 126.66763306 C81.85754804 129.02080796 84.20511365 131.37172929 86.55406022 133.72131729 C88.02697834 135.19495071 89.49918021 136.66929585 90.97113609 138.14389038 C96.12187459 143.30385239 101.27516092 148.46125372 106.4309082 153.61621094 C111.21208301 158.39678527 115.98765246 163.18290849 120.76062471 167.9716711 C124.88043056 172.10461271 129.00414412 176.23362826 133.13084143 180.35968876 C135.58590175 182.81449593 138.03943578 185.27077908 140.48902321 187.73104858 C143.22507546 190.47870844 145.96924874 193.21817151 148.71411133 195.95703125 C149.50872772 196.75726715 150.30334412 197.55750305 151.12203979 198.38198853 C170.52991283 217.68287558 194.48426733 232.62105467 219 244.5 C220.01392822 244.99250244 221.02785645 245.48500488 222.07250977 245.99243164 C228.05229141 248.81997434 234.03994316 251.14707003 240.35131836 253.12915039 C242.82763916 253.94333016 245.17842894 254.88741658 247.5625 255.9375 C255.43743674 259.13747429 263.75586054 261.00681193 272 263 C273.31774414 263.31952637 273.31774414 263.31952637 274.66210938 263.64550781 C300.62326875 269.83971637 326.17574154 272.67279574 352.84191895 272.44952393 C355.54689376 272.43352633 358.25152185 272.44363072 360.95650673 272.45323944 C384.63490749 272.52044962 408.7433677 271.60248884 431.875 266.125 C433.03241699 265.86235352 434.18983398 265.59970703 435.38232422 265.32910156 C444.08167268 263.31338397 452.60100376 261.05318797 461 258 C462.40185547 257.49774902 462.40185547 257.49774902 463.83203125 256.98535156 C500.26790661 243.81534805 532.79322122 224.75385412 561 198 C562.32761143 196.84754189 563.66067655 195.70132593 565 194.5625 C572.93581013 187.65329364 580.2061825 180.02385603 587 172 C588.21236328 170.62134766 588.21236328 170.62134766 589.44921875 169.21484375 C606.76699419 149.38938898 619.8941252 126.87977324 631.74145508 103.47216797 C632.49908279 101.98395493 633.26871288 100.50164177 634.0612793 99.03173828 C637.42795101 92.68171629 639.62751902 85.91469096 641.9375 79.125 C642.15621765 78.48736725 642.3749353 77.8497345 642.60028076 77.19277954 C646.12852255 66.89887174 649.31705393 56.5482143 652 46 C652.33 46 652.66 46 653 46 C653.10957031 46.78761719 653.21914062 47.57523438 653.33203125 48.38671875 C654.16001747 54.07491673 655.11809675 59.57588233 656.625 65.125 C665.00023854 100.36902411 648.36014094 142.15168307 634.08862305 173.59936523 C633.32453731 175.28432935 632.57175797 176.97444453 631.82739258 178.66821289 C628.95632512 185.14279207 625.73511451 191.30964601 622.1875 197.4375 C621.66269043 198.34910889 621.13788086 199.26071777 620.59716797 200.19995117 C614.9696883 209.89670399 608.84481624 219.11765706 602 228 C601.26007812 228.98742188 600.52015625 229.97484375 599.7578125 230.9921875 C594.90037287 237.44502405 589.84246406 243.55827088 584.33203125 249.4765625 C581.5829294 252.45130252 578.9683164 255.52598586 576.375 258.63671875 C575 260 575 260 573 260 C572.773125 260.5775 572.54625 261.155 572.3125 261.75 C570.65238361 264.59591381 568.60812043 265.99841921 566 268 C563.54945006 270.39078043 561.16506608 272.82550157 558.8125 275.3125 C557 277 557 277 555 277 C555 277.66 555 278.32 555 279 C553.03754029 280.71101956 551.06847425 282.30027638 549 283.875 C548.37061523 284.3596875 547.74123047 284.844375 547.09277344 285.34375 C545.74838746 286.37636552 544.40162716 287.40589585 543.05273438 288.43261719 C541.07190836 289.94509376 539.10543596 291.47461903 537.140625 293.0078125 C525.38765916 302.0949738 512.92281399 309.79223726 499.90576172 316.93164062 C498.42929537 317.75933941 496.98750029 318.64903827 495.5625 319.5625 C492.4618633 321.30188157 489.27120161 322.53689382 485.9609375 323.82421875 C481.33176256 325.66245313 476.7707285 327.65677357 472.19921875 329.6328125 C464.11603226 333.0871657 464.11603226 333.0871657 460 333.875 C456.27004872 334.65111415 452.70568368 335.70195959 449.08203125 336.875 C442.02765281 339.06565896 434.92404454 340.66421432 427.6875 342.125 C426.41366455 342.38434326 425.1398291 342.64368652 423.82739258 342.91088867 C380.12577782 351.64452132 332.95662641 350.49526915 289.25 342.625 C288.02080841 342.40479691 288.02080841 342.40479691 286.76678467 342.18014526 C278.12706024 340.61228063 269.79938391 338.85603305 261.50878906 335.89306641 C259.33436119 335.11902426 257.182533 334.4582583 254.953125 333.8671875 C238.52566029 329.46573598 222.4745328 322.91376 207.6796875 314.515625 C205.07878239 313.04455913 202.44287181 311.73073327 199.75 310.4375 C195.74585981 308.45474248 192.08151978 306.19270379 188.40625 303.65625 C186.67375027 302.46375019 184.92102472 301.3004446 183.15625 300.15625 C173.30421494 293.75750558 164.45101861 286.43637139 155.77734375 278.53125 C154.06737572 276.93160961 154.06737572 276.93160961 152 276 C152 275.34 152 274.68 152 274 C151.01 273.67 150.02 273.34 149 273 C149 272.34 149 271.68 149 271 C148.4225 270.7525 147.845 270.505 147.25 270.25 C144.67060021 268.81700012 142.93878408 267.21575324 141 265 C141 264.34 141 263.68 141 263 C140.4225 262.7525 139.845 262.505 139.25 262.25 C136.67060021 260.81700012 134.93878408 259.21575324 133 257 C133 256.34 133 255.68 133 255 C132.443125 254.79375 131.88625 254.5875 131.3125 254.375 C128.73916861 252.84491107 127.26949645 250.99204548 125.4375 248.65625 C123.3283276 246.22611659 120.87083291 244.29200393 118.35546875 242.296875 C117.90816406 241.86890625 117.46085938 241.4409375 117 241 C117 240.34 117 239.68 117 239 C116.443125 238.79375 115.88625 238.5875 115.3125 238.375 C112.72991894 236.83941126 111.25624914 234.97006772 109.41015625 232.6328125 C107.93233491 230.92165094 106.37310367 229.55633321 104.625 228.125 C101.30109607 225.37194044 98.54295077 222.33049494 95.7734375 219.02734375 C93.62349271 216.56958748 91.3123047 214.30536085 89 212 C87.32160862 210.19835175 85.6550364 208.38562604 84 206.5625 C83.175 205.65628906 82.35 204.75007813 81.5 203.81640625 C76.99698409 198.74347738 72.846636 193.5344182 68.9375 188 C68.51662109 187.40960937 68.09574219 186.81921875 67.66210938 186.2109375 C66.43252851 184.47999265 65.21402449 182.74188294 64 181 C63.60441895 180.43796875 63.20883789 179.8759375 62.80126953 179.296875 C60 175.23484932 60 175.23484932 60 173 C59.34 173 58.68 173 58 173 C57.70504639 172.46850342 57.41009277 171.93700684 57.10620117 171.3894043 C56.69345947 170.64601807 56.28071777 169.90263184 55.85546875 169.13671875 C55.3970459 168.31091309 54.93862305 167.48510742 54.46630859 166.63427734 C53.52185857 164.93753812 52.57449189 163.24241745 51.62353516 161.54931641 C28 119.47327723 28 119.47327723 28 109 C27.34 109 26.68 109 26 109 C25.84144531 108.46375 25.68289063 107.9275 25.51953125 107.375 C24.13772532 102.73335356 22.72054173 98.10560609 21.25463867 93.48974609 C16.52919035 78.55666978 12.58729917 63.54295186 9.1875 48.25390625 C8.18180487 43.75179848 7.08535956 39.2801216 5.9375 34.8125 C4.44438268 28.89487992 3.05014791 22.96310613 1.75 17 C1.57460693 16.22245361 1.39921387 15.44490723 1.21850586 14.64379883 C0.15475809 9.65872168 -0.16218899 5.09736831 0 0 Z " fill="#CFD1D0" transform="translate(643,1061)"/>
<path d="M0 0 C11.92830029 11.14837297 17.9205082 26.54728141 18.49951172 42.61083984 C18.62314747 48.53411616 18.57475875 54.44775377 18.45068359 60.37060547 C18.41369757 62.57879285 18.42880301 64.78777705 18.45703125 66.99609375 C18.1329672 89.10723297 6.79932387 111.67781485 -7.59375 128.0234375 C-8.27953125 128.84070313 -8.9653125 129.65796875 -9.671875 130.5 C-23.92941343 147.06541335 -42.88269429 158.97260094 -62.59375 168.0234375 C-63.72941406 168.56613281 -64.86507812 169.10882812 -66.03515625 169.66796875 C-101.43832563 185.87220039 -151.45366069 190.76431422 -188.15625 177.2734375 C-195.72586313 174.27446553 -202.77115414 170.45938982 -209.59375 166.0234375 C-210.56441406 165.40726563 -211.53507813 164.79109375 -212.53515625 164.15625 C-215.10489742 162.26523436 -216.88298364 160.71586924 -218.59375 158.0234375 C-219.05740442 154.47266631 -218.21912697 151.4957145 -217.19726562 148.09570312 C-216.48038681 145.6341872 -215.87316548 143.1548054 -215.265625 140.6640625 C-202.76311251 90.04762596 -176.441428 35.41589484 -130.64208984 6.80419922 C-115.63625422 -2.20074122 -100.48273419 -8.27004879 -83.40625 -12.1640625 C-82.68236084 -12.33107666 -81.95847168 -12.49809082 -81.21264648 -12.67016602 C-53.88308904 -18.66692831 -22.89703137 -17.44864137 0 0 Z " fill="#03050A" transform="translate(1044.59375,701.9765625)"/>
<path d="M0 0 C0.33 0 0.66 0 1 0 C1.89176634 6.90493427 2.17462225 13.67021743 2.203125 20.62890625 C2.20882507 21.73564194 2.21452515 22.84237762 2.22039795 23.98265076 C2.22980885 26.32330382 2.2363663 28.66396989 2.24023438 31.00463867 C2.2498287 34.50008986 2.28084361 37.9949236 2.3125 41.49023438 C2.41931445 64.00905288 -0.26693937 85.24301024 -6 107 C-6.27972656 108.12148438 -6.55945312 109.24296875 -6.84765625 110.3984375 C-8.14864861 115.47444049 -9.80237488 120.26241363 -11.81640625 125.09765625 C-13.3718108 128.91173408 -14.81053464 132.76594464 -16.25 136.625 C-16.52046143 137.34905029 -16.79092285 138.07310059 -17.06958008 138.8190918 C-17.71397905 140.54571601 -18.35712455 142.27280795 -19 144 C-19.495 143.01 -19.495 143.01 -20 142 C-20.598125 141.731875 -21.19625 141.46375 -21.8125 141.1875 C-24.67891132 139.63144814 -26.02047714 137.57937827 -28 135 C-30.69516621 132.15914913 -33.49555746 129.56511591 -36.5 127.0625 C-38.85330408 125.08346868 -40.87562451 123.07574176 -42.8125 120.6875 C-44.71869511 117.96924803 -44.71869511 117.96924803 -47 117 C-45.73585091 114.3776089 -44.37081322 111.94047522 -42.75 109.5234375 C-31.83728189 93.07013869 -22.6931227 76.19126473 -15 58 C-14.66258789 57.21270508 -14.32517578 56.42541016 -13.97753906 55.61425781 C-11.27691513 49.1260153 -9.30493338 42.5370405 -7.5 35.75 C-7.19956787 34.63061035 -6.89913574 33.5112207 -6.58959961 32.35791016 C-3.79077484 21.67093982 -1.75853427 10.90072795 0 0 Z " fill="#CDCFCE" transform="translate(1273,850)"/>
<path d="M0 0 C0.70890381 0.12044678 1.41780762 0.24089355 2.14819336 0.36499023 C9.94155667 1.67792336 17.74570534 2.89773116 25.5625 4.0625 C26.70396484 4.23587891 27.84542969 4.40925781 29.02148438 4.58789062 C30.7143457 4.84022461 30.7143457 4.84022461 32.44140625 5.09765625 C33.43857666 5.24726807 34.43574707 5.39687988 35.46313477 5.55102539 C43.83173981 6.6133478 52.09703612 7.15193015 60.53125 7.1328125 C61.96700378 7.13424759 61.96700378 7.13424759 63.4317627 7.13571167 C65.43839586 7.13638663 67.44503129 7.13458058 69.45166016 7.13037109 C72.49256374 7.1250131 75.53331966 7.13033958 78.57421875 7.13671875 C80.53906282 7.13605785 82.5039068 7.13477643 84.46875 7.1328125 C85.36178833 7.13483673 86.25482666 7.13686096 87.17492676 7.13894653 C92.6456546 7.1190013 98.01605056 6.79144853 103.45739746 6.22018433 C107.31544861 5.88608476 111.12974377 5.93655318 115 6 C110.62607424 10.71841156 105.31612879 13.71861787 99.81640625 16.93554688 C98.08813858 17.9483489 96.37182562 18.9814696 94.65625 20.015625 C70.45007186 33.86330349 40.78362614 40.74409328 13.1015625 35.73046875 C10.54185599 34.84075664 9.60260624 34.19785998 8 32 C7.04615059 29.59501994 6.23687334 27.28230837 5.5 24.8125 C5.28641846 24.11576172 5.07283691 23.41902344 4.8527832 22.70117188 C2.64574911 15.24481774 1.25381474 7.66559908 0 0 Z " fill="#CCCECE" transform="translate(934,1052)"/>
<path d="M0 0 C2.80868131 4.21302197 4.33684725 8.78003497 6.125 13.5 C6.49753906 14.46292969 6.87007812 15.42585938 7.25390625 16.41796875 C7.60582031 17.34222656 7.95773437 18.26648437 8.3203125 19.21875 C8.64273926 20.06373047 8.96516602 20.90871094 9.29736328 21.77929688 C10 24 10 24 10 27 C7.625 26.6875 7.625 26.6875 5 26 C0.35783375 19.03675063 -0.50510495 8.25004758 0 0 Z " fill="#C5C8C7" transform="translate(643,1061)"/>
<path d="M0 0 C1.90747183 2.86120775 3.00353706 5.35254993 4.1875 8.5625 C4.55230469 9.53316406 4.91710937 10.50382812 5.29296875 11.50390625 C6 14 6 14 5 16 C4.01 16 3.02 16 2 16 C0.40837921 10.42932723 -0.20674944 5.78898419 0 0 Z " fill="#BBBEBD" transform="translate(643,1061)"/>
<path d="M0 0 C1.14926266 0.95421808 2.29430541 1.91352045 3.4375 2.875 C4.07558594 3.40867187 4.71367188 3.94234375 5.37109375 4.4921875 C7 6 7 6 8 8 C7.01 8.33 6.02 8.66 5 9 C4.01 8.01 3.02 7.02 2 6 C1.01 6.33 0.02 6.66 -1 7 C-1.66 6.67 -2.32 6.34 -3 6 C-3 3 -3 3 -1.5 1.3125 C-0.7575 0.6628125 -0.7575 0.6628125 0 0 Z " fill="#BBBDBD" transform="translate(757,1223)"/>
<path d="M0 0 C1.14926266 0.95421808 2.29430541 1.91352045 3.4375 2.875 C4.07558594 3.40867187 4.71367188 3.94234375 5.37109375 4.4921875 C7 6 7 6 8 8 C7.01 8.33 6.02 8.66 5 9 C4.01 8.01 3.02 7.02 2 6 C1.01 6.33 0.02 6.66 -1 7 C-1.66 6.67 -2.32 6.34 -3 6 C-3 3 -3 3 -1.5 1.3125 C-0.7575 0.6628125 -0.7575 0.6628125 0 0 Z " fill="#BBBDBD" transform="translate(749,1215)"/>
<path d="M0 0 C1.14926266 0.95421808 2.29430541 1.91352045 3.4375 2.875 C4.07558594 3.40867187 4.71367188 3.94234375 5.37109375 4.4921875 C7 6 7 6 8 8 C7.01 8.33 6.02 8.66 5 9 C4.01 8.01 3.02 7.02 2 6 C1.01 6.33 0.02 6.66 -1 7 C-1.66 6.67 -2.32 6.34 -3 6 C-3 3 -3 3 -1.5 1.3125 C-0.7575 0.6628125 -0.7575 0.6628125 0 0 Z " fill="#BBBDBD" transform="translate(725,1191)"/>
<path d="M0 0 C1.98 1.65 3.96 3.3 6 5 C5.401875 5.144375 4.80375 5.28875 4.1875 5.4375 C2.43849596 5.8872439 0.71322977 6.42892341 -1 7 C-1.66 6.67 -2.32 6.34 -3 6 C-3 3 -3 3 -1.5 1.3125 C-0.7575 0.6628125 -0.7575 0.6628125 0 0 Z " fill="#BDBFBF" transform="translate(765,1231)"/>
<path d="M0 0 C1.98 1.65 3.96 3.3 6 5 C5.401875 5.144375 4.80375 5.28875 4.1875 5.4375 C2.43849596 5.8872439 0.71322977 6.42892341 -1 7 C-1.66 6.67 -2.32 6.34 -3 6 C-3 3 -3 3 -1.5 1.3125 C-0.7575 0.6628125 -0.7575 0.6628125 0 0 Z " fill="#BDBFBE" transform="translate(741,1207)"/>
<path d="M0 0 C1.98 1.65 3.96 3.3 6 5 C5.401875 5.144375 4.80375 5.28875 4.1875 5.4375 C2.43849596 5.8872439 0.71322977 6.42892341 -1 7 C-1.66 6.67 -2.32 6.34 -3 6 C-3 3 -3 3 -1.5 1.3125 C-0.7575 0.6628125 -0.7575 0.6628125 0 0 Z " fill="#BDBFBF" transform="translate(733,1199)"/>
<path d="M0 0 C1.98 1.65 3.96 3.3 6 5 C5.25 6.9375 5.25 6.9375 4 9 C1.875 9.75 1.875 9.75 0 10 C0.66 8.02 1.32 6.04 2 4 C1.01 3.67 0.02 3.34 -1 3 C-0.67 2.01 -0.34 1.02 0 0 Z " fill="#BABCBC" transform="translate(778,1244)"/>
<path d="M0 0 C0.86625 0.556875 0.86625 0.556875 1.75 1.125 C-0.56 2.775 -2.87 4.425 -5.25 6.125 C-5.91 5.795 -6.57 5.465 -7.25 5.125 C-7 3.25 -7 3.25 -6.25 1.125 C-3.78477471 -0.74517091 -2.92889069 -1.13901305 0 0 Z " fill="#141519" transform="translate(1082.25,1080.875)"/>
<path d="M0 0 C-2.44568622 2.92746298 -2.44568622 2.92746298 -4.90112305 3.2487793 C-5.59761963 3.19117432 -6.29411621 3.13356934 -7.01171875 3.07421875 C-7.76904297 3.01943359 -8.52636719 2.96464844 -9.30664062 2.90820312 C-10.09232422 2.83537109 -10.87800781 2.76253906 -11.6875 2.6875 C-12.48478516 2.62626953 -13.28207031 2.56503906 -14.10351562 2.50195312 C-16.07016953 2.34886031 -18.03528989 2.17629291 -20 2 C-20 1.67 -20 1.34 -20 1 C-13.29980211 0.29867087 -6.73742646 -0.11044961 0 0 Z " fill="#888B8C" transform="translate(1049,1058)"/>
<path d="M0 0 C1.32 1.32 2.64 2.64 4 4 C1.625 5.5625 1.625 5.5625 -1 7 C-1.66 6.67 -2.32 6.34 -3 6 C-3 3 -3 3 -1.5 1.3125 C-0.7575 0.6628125 -0.7575 0.6628125 0 0 Z " fill="#C1C3C2" transform="translate(773,1239)"/>
<path d="M0 0 C0.33 0.66 0.66 1.32 1 2 C-1.97 5.63 -4.94 9.26 -8 13 C-8.99 12.67 -9.98 12.34 -11 12 C-10.37351562 11.38511719 -9.74703125 10.77023437 -9.1015625 10.13671875 C-8.28429688 9.32847656 -7.46703125 8.52023437 -6.625 7.6875 C-5.40683594 6.48673828 -5.40683594 6.48673828 -4.1640625 5.26171875 C-1.87395158 2.99990063 -1.87395158 2.99990063 0 0 Z " fill="#1A1B1F" transform="translate(1127,1137)"/>
<path d="M0 0 C0.33 0 0.66 0 1 0 C1.3125 2.1875 1.3125 2.1875 1 5 C-1.5 7.8125 -1.5 7.8125 -4 10 C-2.8905928 6.51329166 -1.73662334 3.22515763 0 0 Z " fill="#ADB0B0" transform="translate(1275,1164)"/>
<path d="M0 0 C2.12508244 3.18762365 2.5020163 5.26512223 3 9 C2.01 9.495 2.01 9.495 1 10 C-0.60725635 6.78548731 -0.05748185 3.56387464 0 0 Z " fill="#A9ABAC" transform="translate(643,1061)"/>
<path d="M0 0 C0.66 0.33 1.32 0.66 2 1 C2 2.66666667 2 4.33333333 2 6 C0.02 5.34 -1.96 4.68 -4 4 C-2.68 2.68 -1.36 1.36 0 0 Z " fill="#1D1F24" transform="translate(769,568)"/>
<path d="M0 0 C2.64 0.99 5.28 1.98 8 3 C5 5 5 5 2 5 C1.34 3.35 0.68 1.7 0 0 Z " fill="#111317" transform="translate(831,928)"/>
<path d="M0 0 C0.66 0.66 1.32 1.32 2 2 C0.68 3.32 -0.64 4.64 -2 6 C-2.33 4.68 -2.66 3.36 -3 2 C-2.01 1.34 -1.02 0.68 0 0 Z " fill="#101216" transform="translate(732,652)"/>
</svg>
